<svg viewBox="1.9 1 182.7994 173.9889400921659" xml:space="preserve" style="max-height: 500px" y="0px" x="0px" id="Layer_1" version="1.1" xmlns:xlink="http://www.w3.org/1999/xlink" xmlns="http://www.w3.org/2000/svg" width="182.7994" height="173.9889400921659">
<style type="text/css">
	.st0{fill:#D60D39;}
	.st1{fill:#161616;}
	.st2{fill:none;stroke:#000000;stroke-width:3.7542;stroke-miterlimit:10;}
</style>
<rect width="100%" height="100%" fill="white"/>
<polygon points="182.5,73.3 134.3,75.8 124,100.7 172.3,98.2" class="st0"/>
<polygon points="79.6,64.5 31.3,67 21.1,91.9 69.3,89.4" class="st0"/>
<polygon points="74.8,126 13.3,129.9 1.9,158.3 63.4,154.5" class="st0"/>
<polygon points="167.3,166.4 130,119.6 100.1,126.5 137.5,173.4" class="st0"/>
<polygon points="130,61.8 108.5,114.3 67.8,116.5 89.3,64" class="st0"/>
<path d="M79.9,5.9L60.2,53.1l102.7-4.8l19.6-47.3L79.9,5.9z M109.6,36.1l-16.4,0.7l5.3-13.1l16.4-0.7L109.6,36.1z   M148.8,34.1l-16.5,0.8l5.3-13.1l16.5-0.8L148.8,34.1z" class="st0"/>
<g>
	<path d="M305.3,87.3l-1.4-0.8l1.3-1c6.5-5.2,9.8-12.2,9.8-20.8c0-8.4-3.1-15.5-9.2-21c-6.2-5.6-13.6-8.4-22.6-8.4   h-41.6v106h44.8c9.2,0,17-2.9,23.2-8.5c6.2-5.6,9.4-13,9.4-21.8C319,100.5,314.4,92.5,305.3,87.3z M283.1,79.1l-22.4,0.5V53h22.4   c7.4,0,12.7,5.5,12.7,13C295.9,73.5,290.4,79.1,283.1,79.1z M260.7,96.4l25.7-0.5c7.8,0,13.6,5.9,13.6,13.8   c0,8.1-5.7,13.9-13.6,13.9h-25.7V96.4z" class="st1"/>
	<path d="M367.6,64.1c-11.1,0-20.6,3.9-28.3,11.6c-7.7,7.7-11.4,16.9-11.4,28.1c0,11.2,3.8,20.7,11.4,28.3   c7.6,7.6,17.1,11.4,28.3,11.4c11.2,0,20.7-3.8,28.3-11.4c7.7-7.7,11.6-17.2,11.6-28.3c0-11.1-3.8-20.3-11.6-28.1   C388.2,67.9,378.7,64.1,367.6,64.1z M389.7,103.8c0,6.5-2.1,11.9-6.4,16.1c-4.2,4.2-9.5,6.4-15.8,6.4c-6.3,0-11.6-2.1-15.8-6.4   c-4.1-4.3-6.2-9.7-6.2-16.1c0-6.4,2.1-11.8,6.2-16.1c4.2-4.2,9.5-6.4,15.8-6.4c6.3,0,11.6,2.1,15.8,6.4   C387.6,91.9,389.7,97.3,389.7,103.8z" class="st1"/>
	<path d="M540.6,87.3l-1.4-0.8l1.3-1c6.5-5.2,9.8-12.2,9.8-20.8c0-8.4-3.1-15.5-9.2-21c-6.2-5.6-13.6-8.4-22.6-8.4   h-41.6v106h44.8c9.2,0,17-2.9,23.2-8.5c6.2-5.6,9.4-13,9.4-21.8C554.3,100.5,549.7,92.5,540.6,87.3z M518.4,79.1H496V53h22.4   c7.4,0,12.7,5.5,12.7,13C531.1,73.5,525.7,79.1,518.4,79.1z M496,95.9h25.7c7.8,0,13.6,5.9,13.6,13.8c0,8.1-5.7,13.9-13.6,13.9H496   V95.9z" class="st1"/>
	<path d="M663.5,75.6c-7.7-7.7-17.2-11.6-28.3-11.6c-11.1,0-20.6,3.9-28.3,11.6c-7.7,7.7-11.4,16.9-11.4,28.1   c0,11.2,3.8,20.7,11.4,28.3c7.6,7.6,17.1,11.4,28.3,11.4c11.2,0,20.7-3.8,28.3-11.4c7.7-7.7,11.6-17.2,11.6-28.3   C675.1,92.6,671.3,83.4,663.5,75.6z M657.4,103.8c0,6.5-2.1,11.9-6.4,16.1c-4.2,4.2-9.5,6.4-15.8,6.4c-6.3,0-11.6-2.1-15.8-6.4   c-4.1-4.3-6.2-9.7-6.2-16.1c0-6.4,2.1-11.8,6.2-16.1c4.2-4.2,9.5-6.4,15.8-6.4s11.6,2.1,15.8,6.4   C655.3,91.9,657.4,97.3,657.4,103.8z" class="st1"/>
	<rect height="106.3" width="17.7" class="st1" y="35" x="566.5"/>
	<polygon points="723.4,104.2 752.2,66.7 752.3,66.5 730.7,66.5 712.5,89.6 694.3,66.6 694.3,66.5 672.6,66.5    701.7,104.2 673.3,141.6 673.2,141.8 694.8,141.8 712.6,118.9 739.9,154.1 761.5,154.1" class="st1"/>
	<path d="M443.9,44.1l-17.6,4.1l-0.1,0v18.2h-13.5V84h13.5v32.5c0,9.2,1.9,15.3,5.9,19.4c4.1,4.1,10.6,6.1,20,6.1   c2.8,0,5.9-0.2,9.2-0.5l0.1,0v-15.9l-0.1,0c-1.5,0.1-3.3,0.2-5.1,0.2c-5.9,0-12.3-0.7-12.3-9.2V84h17.5V66.5h-17.5V44.1z" class="st1"/>
</g>
<g>
	<path d="M778,30c4.8,0,8.9,1.7,12.3,5.1c3.4,3.4,5.1,7.5,5.1,12.3c0,4.8-1.7,8.9-5.1,12.3c-3.4,3.4-7.5,5.1-12.3,5.1   s-8.9-1.7-12.3-5.1c-3.4-3.4-5.1-7.5-5.1-12.3c0-4.8,1.7-8.9,5.1-12.3C769.1,31.7,773.2,30,778,30z M789.1,58.6   c3.1-3.1,4.6-6.9,4.6-11.2c0-4.4-1.5-8.1-4.6-11.2c-3-3.1-6.7-4.7-11.1-4.7c-4.3,0-8,1.5-11.1,4.7c-3.1,3.1-4.6,6.8-4.6,11.2   c0,4.4,1.5,8.1,4.6,11.2s6.8,4.7,11.1,4.7C782.3,63.3,786,61.7,789.1,58.6z M782.2,49.5l3.4,6.2h-4.5l-2.6-5.2h-2v5.2h-4.1V39.1   h6.1c3.7,0,6.4,2.3,6.4,5.4C784.9,46.8,784,48.4,782.2,49.5z M776.3,42.6v4.2h1.9c1.7,0,2.6-0.8,2.6-2.1c0-1.4-0.9-2.1-2.6-2.1   H776.3z"/>
	<circle r="16.8" cy="47.4" cx="778" class="st2"/>
</g>
</svg>